<svg width="123" height="122" viewBox="0 0 123 122" fill="none" xmlns="http://www.w3.org/2000/svg">
<mask id="mask0_1_5220" style="mask-type:alpha" maskUnits="userSpaceOnUse" x="0" y="0" width="123" height="122">
<rect width="123" height="122" fill="#C4C4C4"/>
</mask>
<g mask="url(#mask0_1_5220)">
<path d="M71.0322 50.0119C71.12 48.6448 71.2962 47.2849 71.5599 45.9407C71.7779 44.7902 72.0585 43.6527 72.4007 42.533C72.7702 41.1117 73.2921 39.7347 73.9571 38.4259V38.4259C75.5189 35.3562 77.8229 32.7277 80.6588 30.7806C83.4947 28.8335 86.772 27.6297 90.1914 27.2793H90.254H90.585C95.32 26.8315 99.7497 24.7378 103.107 21.3608C103.776 20.6779 104.398 19.9498 104.968 19.1817V19.1817C104.019 22.6468 102.727 26.0083 101.113 29.2163C100.522 30.3821 99.8873 31.5389 99.2075 32.6688C98.5277 33.7987 97.9374 34.6955 97.2487 35.6908C95.446 38.2521 93.426 40.6523 91.2111 42.8648C89.8503 44.2235 88.4203 45.5105 86.9267 46.7208C89.7617 46.2282 92.5195 45.3628 95.1288 44.1472C90.1474 49.043 83.7349 52.2134 76.8283 53.1954C76.1216 53.303 75.415 53.3837 74.6995 53.4375C74.6188 50.6357 75.1086 47.8468 76.139 45.2412C77.1694 42.6355 78.7187 40.2677 80.6923 38.2824C81.4695 37.5058 82.307 36.7921 83.1968 36.1482C78.5089 38.0498 74.6866 41.6201 72.4633 46.1738C72.195 46.7119 71.9535 47.2679 71.7388 47.8238C71.4656 48.5404 71.2297 49.2708 71.0322 50.0119V50.0119ZM21.0054 105.126C21.5762 104.37 22.1978 103.654 22.8658 102.983C26.2235 99.6058 30.6532 97.5122 35.3882 97.0643V97.0643H35.7191H35.7818C39.2045 96.7136 42.4848 95.5078 45.3225 93.5573C48.1602 91.6069 50.4647 88.9741 52.025 85.8998V85.8998C52.6888 84.5967 53.2106 83.2258 53.5814 81.8106C53.9236 80.691 54.2043 79.5534 54.4222 78.403C54.687 77.0499 54.8633 75.681 54.9499 74.3048C54.7584 75.0261 54.5254 75.7358 54.2522 76.4301V76.4301C54.0376 76.9861 53.7961 77.5421 53.5277 78.0801C51.3045 82.6339 47.4821 86.2042 42.7943 88.1058C43.6841 87.4619 44.5215 86.7482 45.2987 85.9715C47.2696 83.9912 48.818 81.6296 49.8497 79.0304C50.8815 76.4313 51.3751 73.6488 51.3005 70.8524C50.585 70.9062 49.8784 70.9869 49.1717 71.0945C42.2663 72.0899 35.8581 75.2693 30.8801 80.1696C33.4751 78.9353 36.2208 78.0489 39.0465 77.5331C35.11 80.7233 31.6359 84.4477 28.7245 88.599C28.0358 89.5944 27.3828 90.5988 26.7657 91.6211C26.1485 92.6433 25.4508 93.9078 24.8605 95.0735C23.2446 98.2873 21.9532 101.655 21.0054 105.126V105.126ZM20.1109 20.0695C20.865 20.6418 21.5792 21.265 22.2487 21.9347C25.617 25.301 27.7053 29.7421 28.1521 34.4892V34.4892V34.821V34.8748C28.5042 38.3056 29.7089 41.5931 31.6559 44.4365C33.6029 47.2799 36.2301 49.5884 39.297 51.1508V51.1508C40.6024 51.8175 41.9759 52.3406 43.3936 52.7111C44.5103 53.0542 45.645 53.3356 46.7925 53.5541C48.1421 53.8196 49.5075 53.9963 50.8801 54.0832C50.1399 53.8922 49.4112 53.6586 48.6977 53.3837V53.3837C48.1431 53.1685 47.5885 52.9264 47.0519 52.6573C42.5098 50.4284 38.9486 46.5962 37.0519 41.8963C37.6941 42.7884 38.406 43.628 39.1807 44.4072C41.1612 46.3887 43.524 47.9443 46.1247 48.9789C48.7253 50.0135 51.5091 50.5053 54.3059 50.4244C54.2522 49.707 54.1717 48.9986 54.0644 48.2902C53.0831 41.369 49.9209 34.9435 45.0394 29.9517C46.2705 32.5532 47.1546 35.306 47.669 38.139C46.464 36.6425 45.1802 35.2117 43.8229 33.8525C41.6185 31.6266 39.2242 29.5982 36.6673 27.7905C35.6744 27.1 34.6726 26.4454 33.653 25.8266C32.6333 25.2079 31.3721 24.5084 30.2093 23.9165C27.0095 22.2977 23.6566 21.0029 20.2004 20.0515V20.0515L20.1109 20.0695ZM78.2504 74.7711C76.1219 74.1176 73.9016 73.8147 71.6762 73.8744C71.7299 74.5918 71.8104 75.3002 71.9177 76.0087C72.907 82.9381 76.0784 89.3696 80.9696 94.3651C79.7385 91.7635 78.8543 89.0108 78.3399 86.1778C79.5471 87.6752 80.8309 89.109 82.186 90.4732C84.3929 92.6938 86.787 94.719 89.3417 96.5263C90.3345 97.2168 91.3363 97.8714 92.356 98.4901C93.3757 99.1089 94.6368 99.8084 95.7996 100.4C99.018 102.01 102.389 103.293 105.862 104.229C105.108 103.654 104.394 103.028 103.725 102.355C100.356 98.9889 98.2678 94.5478 97.8211 89.8007V89.8007V89.4689V89.4151C97.4698 85.9851 96.2665 82.6982 94.3211 79.8549C92.3757 77.0116 89.7504 74.7026 86.6851 73.1391V73.1391C85.3854 72.4736 84.018 71.9504 82.6064 71.5787C81.4897 71.2357 80.355 70.9543 79.2075 70.7358C77.8579 70.4702 76.4925 70.2935 75.1199 70.2067C75.8593 70.4005 76.5879 70.634 77.3023 70.9062V70.9062C77.8569 71.1214 78.4115 71.3635 78.9481 71.6325C83.4902 73.8615 87.0514 77.6936 88.9481 82.3935C88.3059 81.5014 87.594 80.6618 86.8193 79.8826C84.4294 77.4915 81.4852 75.7322 78.2504 74.7622V74.7711ZM3 62.7637C3.9369 62.6376 4.88118 62.5747 5.82648 62.5754C10.5815 62.5676 15.1904 64.223 18.8587 67.2564V67.2564C18.9352 67.3297 19.0158 67.3986 19.1002 67.4626V67.4626C21.7599 69.6378 24.9201 71.1112 28.293 71.7487C31.666 72.3862 35.1444 72.1674 38.4114 71.1124V71.1124C39.8074 70.6604 41.1509 70.0591 42.4186 69.3189C43.4472 68.7629 44.449 68.1621 45.415 67.5254C46.5527 66.7486 47.6429 65.9041 48.6798 64.9966C48.0187 65.3818 47.338 65.732 46.6404 66.0458V66.0458C46.0948 66.2879 45.5313 66.5121 44.9589 66.7094C40.1983 68.3354 35.0085 68.1567 30.3703 66.2072C31.453 66.3802 32.5476 66.4671 33.644 66.4673C37.0139 66.4713 40.3326 65.6395 43.3041 64.046C45.2812 62.9941 47.0754 61.6284 48.6172 60.0017C48.0716 59.5354 47.517 59.1049 46.9445 58.6655C41.3481 54.4691 34.5591 52.1782 27.5707 52.1282C30.276 53.0894 32.8418 54.4072 35.2004 56.047C33.2928 55.8457 31.3761 55.7439 29.458 55.7421C26.3213 55.743 23.1907 56.0191 20.102 56.5671C18.9213 56.7734 17.7496 57.0245 16.5868 57.3115C15.424 57.5984 14.0465 57.993 12.8032 58.3965C9.39636 59.5155 6.11174 60.9788 3 62.7637H3ZM79.2701 58.2172C79.8157 57.975 80.3792 57.7509 80.9517 57.5536C85.7372 55.9178 90.956 56.1062 95.6118 58.0827C94.5291 57.9093 93.4345 57.8224 92.3381 57.8226C88.9644 57.8323 85.6455 58.6796 82.678 60.2887C80.7168 61.3446 78.9379 62.7102 77.4097 64.333C77.9553 64.7993 78.5098 65.2297 79.0823 65.6691C84.6664 69.8566 91.4384 72.1469 98.4114 72.2064C95.7061 71.2453 93.1403 69.9274 90.7818 68.2877C92.6893 68.489 94.606 68.5908 96.5241 68.5925C99.6559 68.5788 102.78 68.2907 105.862 67.7317C107.052 67.5165 108.215 67.2654 109.377 66.9784C110.54 66.6914 111.918 66.2969 113.161 65.8933C116.579 64.7743 119.876 63.3111 123 61.5262C122.063 61.6553 121.119 61.7212 120.174 61.7235C115.417 61.7287 110.808 60.07 107.141 57.0335V57.0335C107.062 56.9599 106.978 56.891 106.891 56.8272V56.8272C104.228 54.6279 101.057 53.1352 97.6682 52.4865C94.2796 51.8377 90.7827 52.0538 87.4991 53.1147C86.1068 53.569 84.7666 54.1702 83.5009 54.9082C82.4723 55.4641 81.4705 56.065 80.5045 56.7017C79.3659 57.4901 78.2756 58.3465 77.2397 59.2664C77.8979 58.8815 78.5756 58.5313 79.2701 58.2172V58.2172ZM56.9088 90.0069C56.7079 91.9194 56.6064 93.841 56.6047 95.764C56.6066 98.9028 56.8819 102.035 57.4275 105.126C57.6333 106.319 57.8837 107.485 58.1699 108.65C58.4562 109.816 58.8497 111.197 59.2522 112.444C60.3684 115.871 61.8278 119.176 63.6082 122.308V122.308C63.4825 121.368 63.4197 120.422 63.4204 119.474C63.4127 114.707 65.0639 110.086 68.0894 106.408V106.408C68.1628 106.329 68.2315 106.245 68.2952 106.157V106.157C70.4648 103.491 71.9344 100.322 72.5703 96.9409C73.2061 93.5593 72.9879 90.072 71.9356 86.7965C71.4847 85.397 70.885 84.0501 70.1467 82.7791C69.5921 81.7478 68.9928 80.7435 68.3578 79.775C67.594 78.6106 66.7606 77.4936 65.8623 76.4301C66.2464 77.0929 66.5958 77.7753 66.9088 78.4747V78.4747C67.1503 79.0217 67.3739 79.5867 67.5707 80.1606C69.2022 84.9584 69.0143 90.1905 67.0429 94.8583C67.2158 93.7729 67.3026 92.6754 67.3023 91.5762C67.3064 88.1976 66.4767 84.8705 64.8873 81.8913C63.8341 79.9251 62.472 78.1417 60.8533 76.6095C60.3882 77.1565 59.9589 77.7125 59.5206 78.2864C55.3439 83.8849 53.0594 90.6742 53 97.6651C53.958 94.9497 55.2725 92.3743 56.9088 90.0069V90.0069ZM62.3739 2C62.5026 2.9391 62.5684 3.8858 62.5707 4.83373C62.5759 9.60209 60.9215 14.2229 57.8927 17.8994V17.8994C57.8193 17.979 57.7506 18.0628 57.6869 18.1504V18.1504C55.4963 20.8179 54.0092 23.9944 53.3621 27.3883C52.7151 30.7821 52.9289 34.2846 53.9839 37.574C54.4348 38.9736 55.0345 40.3205 55.7728 41.5914C56.3274 42.6227 56.9267 43.6271 57.5617 44.5956C58.3366 45.7361 59.1789 46.8291 60.0841 47.8687C59.6999 47.2059 59.3506 46.5235 59.0376 45.8241V45.8241C58.7961 45.2771 58.5724 44.7121 58.3757 44.1382C56.7441 39.3404 56.932 34.1083 58.9034 29.4405C58.7308 30.526 58.6441 31.6234 58.644 32.7226C58.6647 36.1081 59.5221 39.4356 61.1395 42.4075C62.1752 44.3864 63.5222 46.185 65.1288 47.7342C65.5939 47.1872 66.0233 46.6312 66.4615 46.0573C70.6382 40.4588 72.9227 33.6695 72.9821 26.6785C72.0198 29.3752 70.7054 31.9323 69.0733 34.2829C69.2742 32.3705 69.3757 30.4489 69.3775 28.5258C69.3796 25.3813 69.1072 22.2427 68.5635 19.1458C68.3488 17.9502 68.0984 16.7754 67.8122 15.6216C67.4991 14.3393 67.1324 13.0748 66.7299 11.8284C65.6137 8.41276 64.1542 5.11973 62.3739 2V2Z" fill="url(#paint0_linear_1_5220)"/>
</g>
<defs>
<linearGradient id="paint0_linear_1_5220" x1="62.9911" y1="2.93262" x2="62.9911" y2="123.222" gradientUnits="userSpaceOnUse">
<stop stop-color="#EE4224"/>
<stop offset="0.05" stop-color="#E94925"/>
<stop offset="0.29" stop-color="#D36528"/>
<stop offset="0.53" stop-color="#C47A2B"/>
<stop offset="0.77" stop-color="#BB862C"/>
<stop offset="1" stop-color="#B88A2D"/>
</linearGradient>
</defs>
</svg>
