<svg width="124" height="124" viewBox="0 0 124 124" fill="none" xmlns="http://www.w3.org/2000/svg">
<circle cx="62" cy="62" r="62" fill="#0E1317"/>
<g clip-path="url(#clip0_1_955)">
<path d="M77.2809 66.7764C73.6266 71.6064 67.6078 79.4418 66.748 90.1753C66.748 90.6046 66.533 90.9266 66.2106 91.1413C65.8882 91.356 65.5657 91.5706 65.1358 91.5706H58.4721C58.0422 91.5706 57.7198 91.4633 57.3973 91.1413C57.0749 90.9266 56.9674 90.4973 56.86 90.1753C56.1076 79.4418 46.542 66.7764 46.542 66.7764" stroke="#B68C2D" stroke-miterlimit="10"/>
<path d="M63.5235 62.8049L63.416 74.6117C63.416 74.9337 63.5235 75.2557 63.7385 75.5777C63.9534 75.8997 64.1684 76.0071 64.4908 76.1144C64.8132 76.2217 65.1357 76.2217 65.4581 76.1144C65.7806 76.0071 66.103 75.7924 66.2105 75.5777L75.1312 64.4149" stroke="#B68C2D" stroke-miterlimit="10"/>
<path d="M49.2295 63.5564L57.3979 75.6852C57.6128 75.8998 57.9353 76.1145 58.1502 76.2218C58.4727 76.3292 58.7951 76.3292 59.1175 76.2218C59.44 76.1145 59.6549 75.8998 59.8699 75.6852C60.0848 75.3632 60.1923 75.1485 60.1923 74.7192L60.2998 62.9124" stroke="#B68C2D" stroke-miterlimit="10"/>
<path d="M40.0933 46.7048C39.8784 47.0268 39.5559 47.3488 39.2335 47.4561C37.6213 47.9928 36.1166 49.1735 35.1493 50.6762C34.0745 52.1788 33.5371 54.0035 33.5371 55.8282C33.5371 64.2003 36.2241 68.279 41.9205 68.3864C43.3177 68.3864 44.6074 67.957 45.7897 67.313C46.542 66.8837 47.1869 66.347 47.8318 65.703C49.444 63.9856 50.3038 61.7316 50.3038 59.3703C50.3038 59.0482 50.4113 58.6189 50.6262 58.2969C50.9487 57.9749 51.2711 57.7602 51.5935 57.6529C51.916 57.5456 52.3459 57.5456 52.6683 57.7602C52.9908 57.9749 53.2057 58.2969 53.4207 58.6189C54.6029 61.3023 57.9348 63.0196 61.9115 63.0196C65.7807 63.0196 69.1126 61.3023 70.4023 58.6189C70.6173 58.2969 70.8322 58.0822 71.0472 57.8676C71.2621 57.7602 71.5846 57.6529 71.907 57.6529C72.122 57.6529 72.2295 57.6529 72.3369 57.6529C72.7668 57.7602 73.0893 57.9749 73.3042 58.2969C73.5192 58.6189 73.6267 58.9409 73.6267 59.3703C73.6267 61.7316 74.4865 63.9856 76.0987 65.703C77.7109 67.313 79.753 68.279 82.01 68.279C86.3092 68.279 90.3934 62.2683 90.1784 55.8282C90.0709 54.0035 89.5335 52.1788 88.5662 50.6762C87.4914 49.1735 86.0942 48.1001 84.482 47.4561C84.1596 47.2414 83.8371 47.0268 83.6222 46.7048C83.5147 46.3828 83.4072 46.0608 83.4072 45.6314V45.3094C83.4072 44.5581 83.2998 43.8067 83.0848 43.1627C82.8698 42.4114 82.4399 41.8747 82.01 41.3381C81.5801 40.8014 81.0427 40.4794 80.3978 40.1574C79.753 39.8354 79.1081 39.728 78.4632 39.728C77.2809 39.728 76.0987 40.1574 75.2389 41.016C75.1314 41.2307 74.8089 41.3381 74.594 41.4454C74.379 41.5527 74.0566 41.5527 73.8416 41.4454C73.6267 41.3381 73.4117 41.2307 73.1968 41.016C72.9818 40.9087 72.8743 40.5867 72.7668 40.372C71.907 38.0107 70.4023 36.0787 68.4677 34.6833C66.5331 33.288 64.276 32.5366 61.9115 32.5366C59.547 32.5366 57.2899 33.288 55.3553 34.6833C53.4207 36.0787 51.916 38.118 51.0561 40.372C50.9487 40.5867 50.8412 40.8014 50.6262 41.016C50.4113 41.2307 50.0888 41.3381 49.8739 41.4454C49.6589 41.5527 49.3365 41.5527 49.1215 41.4454C48.9066 41.3381 48.6916 41.2307 48.4767 41.016C47.6168 40.1574 46.4346 39.728 45.2523 39.728C43.9625 39.728 42.6728 40.372 41.7055 41.3381C40.7382 42.3041 40 45.6047 40 47" stroke="#B68C2D" stroke-miterlimit="10"/>
</g>
<defs>
<clipPath id="clip0_1_955">
<rect width="57.931" height="60" fill="white" transform="translate(33 32)"/>
</clipPath>
</defs>
</svg>
