<svg width="124" height="124" viewBox="0 0 124 124" fill="none" xmlns="http://www.w3.org/2000/svg">
<circle cx="62" cy="62" r="62" fill="#0E1317"/>
<path d="M46 47C48.7614 47 51 44.7614 51 42C51 39.2386 48.7614 37 46 37C43.2386 37 41 39.2386 41 42C41 44.7614 43.2386 47 46 47Z" stroke="#B68C2D" stroke-miterlimit="10" stroke-linecap="round"/>
<path d="M75.6847 92.0003H50.0148C50.0148 90.3134 54.9148 88.0541 60.7587 87.5119V63.6344L45.5415 45.0584C45.3269 44.7248 45.2061 44.3395 45.1919 43.943C45.1776 43.5466 45.2703 43.1536 45.4604 42.8054C45.6504 42.4571 45.9307 42.1665 46.2719 41.964C46.613 41.7615 47.0024 41.6546 47.3991 41.6545H78.3054C78.7021 41.6546 79.0914 41.7615 79.4326 41.964C79.7737 42.1665 80.054 42.4571 80.2441 42.8054C80.4341 43.1536 80.5269 43.5466 80.5126 43.943C80.4983 44.3395 80.3775 44.7248 80.163 45.0584L64.9458 63.6344V87.5119C70.8047 88.0742 75.6847 90.3134 75.6847 92.0003Z" stroke="#B68C2D" stroke-miterlimit="10" stroke-linecap="round"/>
<path d="M79.1757 36.5479L68 56" stroke="#B68C2D" stroke-miterlimit="10" stroke-linecap="round"/>
<path d="M80.6006 36.9142C82.2338 36.9142 83.5577 35.5902 83.5577 33.9571C83.5577 32.3239 82.2338 31 80.6006 31C78.9675 31 77.6436 32.3239 77.6436 33.9571C77.6436 35.5902 78.9675 36.9142 80.6006 36.9142Z" stroke="#B68C2D" stroke-miterlimit="10" stroke-linecap="round"/>
<path d="M54 47.9644L57.8034 47.0906C58.2927 46.9794 58.8046 46.9704 59.2985 47.0643C59.7924 47.1582 60.2549 47.3524 60.6496 47.6316L61.8718 48.4978C62.2905 48.7964 62.8045 48.9709 63.3413 48.9967C63.8781 49.0225 64.4105 48.8982 64.8632 48.6416L65.6624 48.1876C66.3283 47.8116 67.0744 47.5608 67.8544 47.4508C68.6344 47.3409 69.4317 47.374 70.1966 47.5483L72 47.9644" stroke="#B68C2D" stroke-miterlimit="10" stroke-linecap="round"/>
<path d="M57 53.9644L59.5356 53.0906C59.8618 52.9794 60.203 52.9704 60.5323 53.0643C60.8616 53.1582 61.17 53.3524 61.433 53.6316L62.2479 54.4978C62.527 54.7964 62.8697 54.9709 63.2276 54.9967C63.5854 55.0225 63.9404 54.8982 64.2422 54.6416L64.7749 54.1876C65.2189 53.8116 65.7163 53.5608 66.2363 53.4508C66.7563 53.3409 67.2878 53.374 67.7977 53.5483L69 53.9644" stroke="#B68C2D" stroke-miterlimit="10" stroke-linecap="round"/>
</svg>
