<svg width="124" height="124" viewBox="0 0 124 124" fill="none" xmlns="http://www.w3.org/2000/svg">
<circle cx="62" cy="62" r="62" fill="#0E1317"/>
<path d="M87.361 51.9354C87.3609 53.7912 86.9472 55.6236 86.1499 57.2994C85.3526 58.9752 84.1917 60.4522 82.7518 61.6229L79.0917 84.0853H45.2727L41.6999 61.6829C39.6762 60.0708 38.2042 57.8692 37.4877 55.3831C36.7712 52.897 36.8458 50.2496 37.701 47.8078C38.5563 45.366 40.15 43.2507 42.2612 41.7551C44.3723 40.2595 46.8964 39.4576 49.4837 39.4606C49.9155 39.4605 50.3469 39.4823 50.7765 39.526C51.7432 37.2907 53.3429 35.3871 55.3783 34.0498C57.4137 32.7126 59.7959 32 62.2313 32C64.6667 32 67.0489 32.7126 69.0843 34.0498C71.1197 35.3871 72.7193 37.2907 73.6861 39.526C74.0902 39.484 74.4962 39.464 74.9025 39.466C78.2072 39.4703 81.3752 40.7858 83.711 43.1237C86.0468 45.4615 87.3595 48.6306 87.361 51.9354V51.9354Z" stroke="#B68C2D" stroke-miterlimit="10" stroke-linecap="round"/>
<path d="M79.2448 84.085H45.1203C43.9153 84.085 42.9385 85.0618 42.9385 86.2668V89.8178C42.9385 91.0228 43.9153 91.9997 45.1203 91.9997H79.2448C80.4498 91.9997 81.4267 91.0228 81.4267 89.8178V86.2668C81.4267 85.0618 80.4498 84.085 79.2448 84.085Z" stroke="#B68C2D" stroke-miterlimit="10" stroke-linecap="round"/>
<path d="M62.1816 50.6702V73.4544" stroke="#B68C2D" stroke-miterlimit="10" stroke-linecap="round"/>
<path d="M71.8694 58.1377L71.3457 73.0562" stroke="#B68C2D" stroke-miterlimit="10" stroke-linecap="round"/>
<path d="M52.4941 58.1377L53.0178 73.0562" stroke="#B68C2D" stroke-miterlimit="10" stroke-linecap="round"/>
</svg>
