<svg width="124" height="124" viewBox="0 0 124 124" fill="none" xmlns="http://www.w3.org/2000/svg">
<circle cx="62" cy="62" r="62" fill="#0E1317"/>
<path d="M59.4626 69.019C60.1133 69.4526 60.1133 71.4038 60.5471 72.0542C60.5471 72.271 60.7641 72.4878 60.7641 72.7046C62.0655 72.7046 63.15 72.7046 64.2346 72.7046C65.7529 72.9214 67.2713 73.5718 68.3558 74.439C74.4292 70.103 82.2378 69.2358 89.1788 72.0542C90.2634 72.4878 91.131 73.355 91.3479 74.439C91.5648 75.523 91.5648 76.8239 90.9141 77.6911C89.3957 79.8591 87.4436 81.5935 85.2745 82.8943H85.4914C86.359 83.3279 87.0098 84.1951 87.0098 85.2791C87.2267 86.3631 86.7929 87.4472 85.9252 88.0976C83.5393 90.2656 80.2857 91.5664 77.0321 92H75.5137C72.8995 92 69.2685 91.2908 67 90M59.4626 69.019C59.6795 68.5854 59.4626 69.4526 59.4626 69.019ZM59.4626 69.019C60.981 68.3686 62.2824 67.0677 62.7162 65.3333C62.9331 65.1165 62.9331 64.6829 62.9331 64.2493C65.536 64.2493 68.1389 63.1653 70.308 61.6477C74.863 57.9621 76.1644 51.6748 73.3446 46.4715C71.8263 43.6531 69.8741 41.0515 67.4882 38.6667C65.3191 36.4986 62.7162 34.5474 60.1133 32.813C58.3781 31.729 56.209 31.729 54.4738 32.813L41.8932 40.6179C40.5917 41.4851 39.7241 42.7859 39.5072 44.3035C39.5072 44.9539 39.5072 45.8211 39.7241 46.4715L33.8676 55.1436C33 56.4444 32.7831 58.1789 33.2169 59.6965L33.4338 60.1301C33 62.9485 33 65.9837 33.6507 68.8022C33.6507 69.019 33.8676 69.2358 33.8676 69.4526C34.5183 72.271 36.4705 74.6558 39.0734 75.9566C39.5072 76.3902 40.1579 76.607 40.5917 76.607C41.4594 78.9919 43.1946 81.3767 45.1468 82.8943L45.5806 83.3279C46.882 84.1951 48.1835 84.6287 49.7018 84.6287C49.9187 84.6287 50.1356 84.6287 50.5694 84.6287C50.7863 84.6287 50.5694 84.8455 50.5694 84.8455C52.0878 86.7967 54.0399 88.5312 56.209 89.6152C57.2935 90.2656 58.3781 90.6992 59.6795 91.1328C60.5472 91.3496 61.6317 91.5664 62.4993 91.5664C64.0177 91.5664 65.7529 91.1328 67.0544 90.2656" stroke="#B68C2D" stroke-miterlimit="10"/>
<path d="M39.7246 46.6882C42.5444 49.7235 46.4487 53.1923 51.0038 56.6611C55.3419 59.9132 59.68 62.5148 63.1505 64.2492" stroke="#B68C2D" stroke-miterlimit="10"/>
<path d="M33.4336 60.1301C36.6872 62.0813 40.8084 64.0326 45.7973 65.767C51.003 67.5014 55.775 68.3686 59.4624 69.019" stroke="#B68C2D" stroke-miterlimit="10"/>
<path d="M40.5918 76.607C43.6285 76.3902 47.5328 76.1734 51.4371 75.3062C54.9076 74.6558 58.1612 73.5718 60.7641 72.7046" stroke="#B68C2D" stroke-miterlimit="10"/>
<path d="M50.5693 85.0623C53.606 83.9783 57.2934 82.2439 61.1978 79.6422C64.0175 77.9078 66.4035 75.9566 68.3557 74.2222" stroke="#B68C2D" stroke-miterlimit="10"/>
<path d="M66.5 90.5C67.3676 89.1992 69.8741 86.5799 70.0911 82.8942C70.308 78.775 69.0065 75.523 68.3558 74.439" stroke="#B68C2D" stroke-miterlimit="10"/>
<path d="M85.2743 82.8943C83.9728 83.5447 81.1531 84.8455 77.4656 84.8455C73.9951 84.8455 71.3923 83.5447 70.0908 82.8943" stroke="#B68C2D" stroke-miterlimit="10"/>
</svg>
