<svg width="32" height="32" viewBox="0 0 32 32" fill="none" xmlns="http://www.w3.org/2000/svg">
<circle cx="16" cy="16" r="16" fill="#B68C2D"/>
<g clip-path="url(#clip0_298_2865)">
<path d="M16.1012 11.9341C15.2903 11.9341 14.4976 12.1745 13.8234 12.625C13.1491 13.0756 12.6236 13.7159 12.3133 14.4651C12.003 15.2142 11.9218 16.0386 12.08 16.8339C12.2382 17.6293 12.6287 18.3598 13.2021 18.9332C13.7755 19.5066 14.506 19.8971 15.3013 20.0553C16.0967 20.2135 16.921 20.1323 17.6702 19.822C18.4194 19.5117 19.0597 18.9862 19.5102 18.3119C19.9607 17.6377 20.2012 16.845 20.2012 16.0341C20.2025 15.4953 20.0974 14.9615 19.8918 14.4635C19.6862 13.9655 19.3843 13.513 19.0033 13.132C18.6223 12.751 18.1698 12.4491 17.6718 12.2435C17.1737 12.0379 16.64 11.9328 16.1012 11.9341V11.9341ZM16.1012 18.7041C15.5731 18.7041 15.0569 18.5475 14.6178 18.2541C14.1788 17.9607 13.8365 17.5437 13.6345 17.0558C13.4324 16.568 13.3795 16.0311 13.4825 15.5132C13.5855 14.9953 13.8398 14.5195 14.2132 14.1461C14.5866 13.7727 15.0624 13.5184 15.5803 13.4154C16.0982 13.3124 16.6351 13.3652 17.123 13.5673C17.6109 13.7694 18.0279 14.1116 18.3212 14.5507C18.6146 14.9898 18.7712 15.506 18.7712 16.0341C18.7712 16.7422 18.4899 17.4213 17.9892 17.922C17.4885 18.4228 16.8093 18.7041 16.1012 18.7041ZM21.3312 11.7641C21.3312 11.9619 21.2726 12.1552 21.1627 12.3196C21.0528 12.4841 20.8966 12.6123 20.7139 12.688C20.5312 12.7636 20.3301 12.7834 20.1361 12.7449C19.9421 12.7063 19.764 12.611 19.6241 12.4712C19.4843 12.3313 19.389 12.1531 19.3504 11.9592C19.3118 11.7652 19.3316 11.5641 19.4073 11.3814C19.483 11.1987 19.6112 11.0425 19.7756 10.9326C19.9401 10.8227 20.1334 10.7641 20.3312 10.7641C20.5964 10.7641 20.8508 10.8694 21.0383 11.057C21.2259 11.2445 21.3312 11.4989 21.3312 11.7641ZM24.0412 12.7641C24.0703 11.5209 23.6066 10.3167 22.7512 9.41407C21.8534 8.54776 20.6486 8.07303 19.4012 8.09407C18.1012 8.03407 14.1012 8.03407 12.8012 8.09407C11.5584 8.06716 10.355 8.53057 9.45121 9.38407C8.59584 10.2867 8.13212 11.4909 8.16121 12.7341C8.10121 14.0341 8.10121 18.0341 8.16121 19.3341C8.13212 20.5772 8.59584 21.7815 9.45121 22.6841C10.355 23.5376 11.5584 24.001 12.8012 23.9741C14.1212 24.0541 18.0812 24.0541 19.4012 23.9741C20.6444 24.0032 21.8486 23.5394 22.7512 22.6841C23.6066 21.7815 24.0703 20.5772 24.0412 19.3341C24.1012 18.0341 24.1012 14.0341 24.0412 12.7341V12.7641ZM22.3412 20.7641C22.2054 21.108 22.0005 21.4204 21.739 21.6819C21.4775 21.9433 21.1651 22.1483 20.8212 22.2841C19.2688 22.5979 17.6818 22.7055 16.1012 22.6041C14.524 22.7057 12.9402 22.5981 11.3912 22.2841C11.0473 22.1483 10.7349 21.9433 10.4734 21.6819C10.212 21.4204 10.007 21.108 9.87121 20.7641C9.45121 19.7041 9.54121 17.2041 9.54121 16.0441C9.54121 14.8841 9.45121 12.3741 9.87121 11.3241C10.0032 10.9767 10.2067 10.661 10.4685 10.3974C10.7304 10.1339 11.0448 9.92829 11.3912 9.79407C12.9402 9.48005 14.524 9.37245 16.1012 9.47407C17.6818 9.37262 19.2688 9.48021 20.8212 9.79407C21.1651 9.92985 21.4775 10.1348 21.739 10.3963C22.0005 10.6577 22.2054 10.9701 22.3412 11.3141C22.7612 12.3741 22.6612 14.8741 22.6612 16.0341C22.6612 17.1941 22.7612 19.7041 22.3412 20.7541V20.7641Z" fill="white"/>
</g>
<defs>
<clipPath id="clip0_298_2865">
<rect width="16" height="16" fill="white" transform="translate(8.10156 8.03418)"/>
</clipPath>
</defs>
</svg>
