<svg width="32" height="32" viewBox="0 0 32 32" fill="none" xmlns="http://www.w3.org/2000/svg">
<circle cx="16" cy="16" r="16" fill="#B68C2D"/>
<path d="M22.1064 13.1824C22.1168 13.3224 22.1168 13.4616 22.1168 13.6008C22.1168 17.8608 18.8744 22.7696 12.9488 22.7696C11.1232 22.7696 9.4272 22.2408 8 21.3224C8.2592 21.352 8.5088 21.3624 8.7784 21.3624C10.2288 21.3659 11.6381 20.8809 12.7792 19.9856C12.1067 19.9734 11.4549 19.7516 10.9146 19.351C10.3743 18.9504 9.97263 18.3911 9.7656 17.7512C9.9648 17.7808 10.1648 17.8008 10.3744 17.8008C10.6632 17.8008 10.9536 17.7608 11.2232 17.6912C10.4934 17.5439 9.83718 17.1483 9.36609 16.5717C8.89501 15.9952 8.63815 15.2733 8.6392 14.5288V14.4888C9.0688 14.728 9.5672 14.8776 10.0952 14.8976C9.65287 14.6037 9.29018 14.2048 9.03947 13.7366C8.78877 13.2684 8.65785 12.7455 8.6584 12.2144C8.6584 11.616 8.8176 11.0672 9.0968 10.5888C9.90651 11.5848 10.9164 12.3996 12.0611 12.9805C13.2057 13.5614 14.4596 13.8954 15.7416 13.9608C15.692 13.7208 15.6616 13.472 15.6616 13.2224C15.6614 12.7992 15.7446 12.38 15.9065 11.989C16.0683 11.5979 16.3057 11.2426 16.6049 10.9434C16.9042 10.6441 17.2595 10.4067 17.6506 10.2449C18.0416 10.083 18.4608 9.99979 18.884 10C19.812 10 20.6496 10.3888 21.2384 11.0176C21.9598 10.8781 22.6516 10.6147 23.2832 10.2392C23.0427 10.9839 22.539 11.6153 21.8664 12.0152C22.5062 11.9422 23.1315 11.774 23.7216 11.516C23.2809 12.1585 22.7348 12.7219 22.1064 13.1824Z" fill="white"/>
</svg>
