<svg width="32" height="32" viewBox="0 0 32 32" fill="none" xmlns="http://www.w3.org/2000/svg">
<g clip-path="url(#clip0_1_1406)">
<path d="M15.9998 -0.0341797C7.15782 -0.0341797 -0.0341797 7.15782 -0.0341797 15.9998C-0.0341797 24.8418 7.15782 32.0338 15.9998 32.0338C24.8418 32.0338 32.0338 24.8418 32.0338 15.9998C32.0338 7.15782 24.8418 -0.0341797 15.9998 -0.0341797ZM15.9998 30.9658C7.74782 30.9658 1.03382 24.2518 1.03382 15.9998C1.03382 7.74782 7.74782 1.03382 15.9998 1.03382C24.2518 1.03382 30.9658 7.74782 30.9658 15.9998C30.9658 24.2518 24.2518 30.9658 15.9998 30.9658Z" fill="white"/>
<g clip-path="url(#clip1_1_1406)">
<path d="M16.5983 22H13.9316V14H16.5983V15.3333C16.879 14.9762 17.2353 14.6856 17.6416 14.4824C18.0479 14.2792 18.4941 14.1684 18.9483 14.158C19.7426 14.1624 20.5027 14.4816 21.0619 15.0456C21.6212 15.6096 21.9339 16.3724 21.9316 17.1667V22H19.265V17.5C19.2134 17.1397 19.0334 16.8102 18.7582 16.572C18.4829 16.3339 18.1309 16.2032 17.767 16.204C17.6041 16.2091 17.4439 16.2471 17.296 16.3157C17.1482 16.3843 17.0157 16.482 16.9066 16.6031C16.7975 16.7241 16.7139 16.8659 16.6609 17.0201C16.6079 17.1742 16.5866 17.3374 16.5983 17.5V22ZM12.5983 22H9.93164V14H12.5983V22ZM11.265 12.6667C10.9114 12.6667 10.5722 12.5262 10.3222 12.2761C10.0721 12.0261 9.93164 11.687 9.93164 11.3333C9.93164 10.9797 10.0721 10.6406 10.3222 10.3905C10.5722 10.1405 10.9114 10 11.265 10C11.6186 10 11.9577 10.1405 12.2078 10.3905C12.4578 10.6406 12.5983 10.9797 12.5983 11.3333C12.5983 11.687 12.4578 12.0261 12.2078 12.2761C11.9577 12.5262 11.6186 12.6667 11.265 12.6667Z" fill="white"/>
</g>
</g>
<defs>
<clipPath id="clip0_1_1406">
<rect width="32" height="32" fill="white"/>
</clipPath>
<clipPath id="clip1_1_1406">
<rect width="12" height="12" fill="white" transform="translate(9.93164 10)"/>
</clipPath>
</defs>
</svg>
