<svg width="32" height="32" viewBox="0 0 32 32" fill="none" xmlns="http://www.w3.org/2000/svg">
<circle cx="16" cy="16" r="16" fill="#B68C2D"/>
<g clip-path="url(#clip0_298_2855)">
<path d="M16.7008 22.0342H14.0342V14.0342H16.7008V15.3675C16.9816 15.0104 17.3379 14.7198 17.7442 14.5165C18.1504 14.3133 18.5967 14.2026 19.0508 14.1922C19.8451 14.1966 20.6052 14.5158 21.1645 15.0798C21.7237 15.6438 22.0365 16.4066 22.0342 17.2008V22.0342H19.3675V17.5342C19.3159 17.1739 19.1359 16.8444 18.8607 16.6062C18.5855 16.3681 18.2335 16.2374 17.8695 16.2382C17.7066 16.2433 17.5464 16.2813 17.3986 16.3499C17.2507 16.4185 17.1183 16.5162 17.0091 16.6373C16.9 16.7583 16.8164 16.9001 16.7634 17.0542C16.7105 17.2084 16.6892 17.3716 16.7008 17.5342V22.0342ZM12.7008 22.0342H10.0342V14.0342H12.7008V22.0342ZM11.3675 12.7008C11.0139 12.7008 10.6748 12.5604 10.4247 12.3103C10.1747 12.0603 10.0342 11.7211 10.0342 11.3675C10.0342 11.0139 10.1747 10.6748 10.4247 10.4247C10.6748 10.1747 11.0139 10.0342 11.3675 10.0342C11.7211 10.0342 12.0603 10.1747 12.3103 10.4247C12.5604 10.6748 12.7008 11.0139 12.7008 11.3675C12.7008 11.7211 12.5604 12.0603 12.3103 12.3103C12.0603 12.5604 11.7211 12.7008 11.3675 12.7008Z" fill="white"/>
</g>
<defs>
<clipPath id="clip0_298_2855">
<rect width="12" height="12" fill="white" transform="translate(10.0342 10.0342)"/>
</clipPath>
</defs>
</svg>
